HIERARCHY
ROOT Hips
{
	OFFSET 0.000000 0.000000 0.000000
	CHANNELS 6 Xposition Yposition Zposition Xrotation Yrotation Zrotation
	JOINT Spine
	{
		OFFSET 0.000000 0.041051 0.061576
		CHANNELS 3 Xrotation Yrotation Zrotation
		JOINT Spine1
		{
			OFFSET 0.000000 0.014257 0.080854
			CHANNELS 3 Xrotation Yrotation Zrotation
			JOINT Spine2
			{
				OFFSET 0.000000 0.007156 0.081789
				CHANNELS 3 Xrotation Yrotation Zrotation
				JOINT Spine3
				{
					OFFSET 0.000000 0.000000 0.082102
					CHANNELS 3 Xrotation Yrotation Zrotation
					JOINT Neck
					{
						OFFSET 0.000000 -0.030788 0.215517
						CHANNELS 3 Xrotation Yrotation Zrotation
						JOINT Head
						{
							OFFSET 0.000000 -0.019603 0.111175
							CHANNELS 3 Xrotation Yrotation Zrotation
							End Site
							{
								OFFSET 0.000000 0.000000 0.000000
							}
						}
					}
					JOINT RightShoulder
					{
						OFFSET -0.026795 -0.044658 0.144692
						CHANNELS 3 Xrotation Yrotation Zrotation
						JOINT RightArm
						{
							OFFSET -0.133081 0.000000 0.000000
							CHANNELS 3 Xrotation Yrotation Zrotation
							JOINT RightForeArm
							{
								OFFSET -0.269168 0.000000 0.000000
								CHANNELS 3 Xrotation Yrotation Zrotation
								JOINT RightHand
								{
									OFFSET -0.218749 0.000000 0.000000
									CHANNELS 3 Xrotation Yrotation Zrotation
									JOINT RightHandEnd
									{
										OFFSET -0.063788 0.000000 0.000000
										CHANNELS 3 Xrotation Yrotation Zrotation
										End Site
										{
											OFFSET 0.000000 0.000000 0.000000
										}
									}
									JOINT RightHandThumb1
									{
										OFFSET -0.025515 -0.042525 -0.017010
										CHANNELS 3 Xrotation Yrotation Zrotation
										End Site
										{
											OFFSET 0.000000 0.000000 0.000000
										}
									}
								}
							}
						}
					}
					JOINT LeftShoulder
					{
						OFFSET 0.026795 -0.044658 0.144692
						CHANNELS 3 Xrotation Yrotation Zrotation
						JOINT LeftArm
						{
							OFFSET 0.133081 0.000000 0.000000
							CHANNELS 3 Xrotation Yrotation Zrotation
							JOINT LeftForeArm
							{
								OFFSET 0.269168 0.000000 0.000000
								CHANNELS 3 Xrotation Yrotation Zrotation
								JOINT LeftHand
								{
									OFFSET 0.218749 0.000000 0.000000
									CHANNELS 3 Xrotation Yrotation Zrotation
									JOINT LeftHandEnd
									{
										OFFSET 0.063788 0.000000 0.000000
										CHANNELS 3 Xrotation Yrotation Zrotation
										End Site
										{
											OFFSET 0.000000 0.000000 0.000000
										}
									}
									JOINT LeftHandThumb1
									{
										OFFSET 0.025515 -0.042525 -0.017010
										CHANNELS 3 Xrotation Yrotation Zrotation
										End Site
										{
											OFFSET 0.000000 0.000000 0.000000
										}
									}
								}
							}
						}
					}
				}
			}
		}
	}
	JOINT RightUpLeg
	{
		OFFSET -0.079492 0.000000 -0.023222
		CHANNELS 3 Xrotation Yrotation Zrotation
		JOINT RightLeg
		{
			OFFSET 0.000000 0.000000 -0.393933
			CHANNELS 3 Xrotation Yrotation Zrotation
			JOINT RightFoot
			{
				OFFSET 0.000000 0.000000 -0.344864
				CHANNELS 3 Xrotation Yrotation Zrotation
				JOINT RightToeBase
				{
					OFFSET 0.000000 -0.129455 -0.047118
					CHANNELS 3 Xrotation Yrotation Zrotation
					End Site
					{
						OFFSET 0.000000 0.000000 0.000000
					}
				}
			}
		}
	}
	JOINT LeftUpLeg
	{
		OFFSET 0.079492 0.000000 -0.023222
		CHANNELS 3 Xrotation Yrotation Zrotation
		JOINT LeftLeg
		{
			OFFSET 0.000000 0.000000 -0.393933
			CHANNELS 3 Xrotation Yrotation Zrotation
			JOINT LeftFoot
			{
				OFFSET 0.000000 0.000000 -0.344864
				CHANNELS 3 Xrotation Yrotation Zrotation
				JOINT LeftToeBase
				{
					OFFSET 0.000000 -0.129455 -0.047118
					CHANNELS 3 Xrotation Yrotation Zrotation
					End Site
					{
						OFFSET 0.000000 0.000000 0.000000
					}
				}
			}
		}
	}
}
MOTION
Frames: 6
Frame Time: 0.033333
0.541749 -1.107354 0.832673 -0.021000 1.284700 -91.260100 -0.038300 0.597200 0.882900 -0.074300 -0.642800 0.029100 1.420200 1.147800 0.097500 0.187600 0.035000 -0.374200 2.057900 1.019900 -2.500300 -1.531100 -0.205900 -4.393000 1.491700 19.855400 -2.668700 3.706400 -13.548400 6.018800 0.000000 0.000000 -1.468800 2.543700 11.966500 -7.321000 0.000000 0.000000 0.000000 0.000000 0.000000 0.000000 -2.018600 -16.669400 1.097100 -3.024300 14.697900 8.870000 0.000000 0.000000 -10.937200 2.469900 -5.487900 4.497800 0.000000 0.000000 0.000000 0.000000 0.000000 0.000000 5.738700 0.365200 -15.122100 -1.746500 0.000000 0.000000 -5.437200 -1.839600 -12.961700 -2.142100 0.000000 0.000000 2.112800 -2.833800 19.458700 3.455400 0.000000 0.000000 -2.619600 2.189700 1.577600 -0.077600 0.000000 0.000000 
0.542277 -1.107498 0.832696 -0.011800 1.378800 -91.228700 0.056900 0.573800 0.873000 -0.034500 -0.639100 0.028200 1.492500 1.143800 0.104300 0.196300 0.042500 -0.378800 2.013000 1.042100 -2.439900 -1.627600 -0.242200 -4.377400 1.549200 20.006200 -2.626300 3.718500 -13.662100 5.940600 0.000000 0.000000 -1.500300 2.544800 11.913900 -7.329200 0.000000 0.000000 0.000000 0.000000 0.000000 0.000000 -1.853700 -16.820100 1.101800 -3.027100 14.932500 8.788000 0.000000 0.000000 -10.854000 2.476500 -5.291600 4.561900 0.000000 0.000000 0.000000 0.000000 0.000000 0.000000 5.709500 0.384200 -15.304000 -1.563500 0.000000 0.000000 -5.461600 -1.829300 -12.827600 -2.131400 0.000000 0.000000 2.059200 -2.862700 19.202400 3.712300 0.000000 0.000000 -2.751200 2.170300 1.767500 -1.304300 0.000000 0.000000 
0.543095 -1.107763 0.832785 0.012500 1.474000 -91.233100 0.221800 0.527000 0.860200 0.050700 -0.633900 0.030100 1.440700 1.130400 0.162700 0.165100 0.050500 -0.375700 2.051900 1.071700 -2.353200 -1.525500 -0.280200 -4.319900 1.590900 20.193200 -2.521200 3.742900 -13.805300 5.824500 0.000000 0.000000 -1.514900 2.590900 11.971100 -7.367500 0.000000 0.000000 0.000000 0.000000 0.000000 0.000000 -1.749800 -16.981600 1.040100 -3.029700 15.229200 8.699800 0.000000 0.000000 -10.781300 2.529200 -5.111200 4.578100 0.000000 0.000000 0.000000 0.000000 0.000000 0.000000 5.544700 0.424200 -15.683800 -1.146800 0.000000 0.000000 -5.542200 -1.823000 -12.460700 -2.106000 0.000000 0.000000 1.893400 -2.927300 18.782700 4.193600 0.000000 0.000000 -2.984500 2.151400 2.124600 -3.013200 0.000000 0.000000 
0.543690 -1.108111 0.832932 0.041300 1.461000 -91.311600 0.319500 0.483700 0.853800 0.128300 -0.638300 0.032600 1.235700 1.118700 0.251500 0.099900 0.051700 -0.365700 2.232100 1.076700 -2.284000 -1.124000 -0.263800 -4.213800 1.499300 20.319600 -2.385700 3.739100 -13.910500 5.809600 0.000000 0.000000 -1.464700 2.657000 12.108200 -7.446000 0.000000 0.000000 0.000000 0.000000 0.000000 0.000000 -1.851900 -17.026100 0.945900 -3.069500 15.381400 8.686200 0.000000 0.000000 -10.843300 2.534800 -5.145700 4.545900 0.000000 0.000000 0.000000 0.000000 0.000000 0.000000 5.237300 0.478300 -16.140000 -0.644000 0.000000 0.000000 -5.663100 -1.823200 -11.944700 -2.038200 0.000000 0.000000 1.633400 -2.994600 18.395100 4.688000 0.000000 0.000000 -3.214800 2.160500 2.515700 -4.258700 0.000000 0.000000 
0.543687 -1.108489 0.833041 0.054300 1.350500 -91.432800 0.258800 0.467800 0.857800 0.126800 -0.648300 0.033900 1.059600 1.117700 0.303000 0.064400 0.050500 -0.355900 2.475300 1.054800 -2.258200 -0.656700 -0.202600 -4.104900 1.315300 20.320200 -2.314600 3.706500 -13.909600 5.997800 0.000000 0.000000 -1.353000 2.665800 12.255200 -7.496200 0.000000 0.000000 0.000000 0.000000 0.000000 0.000000 -2.072100 -16.944600 0.914900 -3.166600 15.319400 8.740600 0.000000 0.000000 -11.024400 2.418300 -5.370800 4.509400 0.000000 0.000000 0.000000 0.000000 0.000000 0.000000 4.953600 0.532400 -16.460900 -0.318300 0.000000 0.000000 -5.756500 -1.833000 -11.529700 -1.911400 0.000000 0.000000 1.422400 -3.016000 18.231700 4.950000 0.000000 0.000000 -3.346800 2.189300 2.752900 -4.615600 0.000000 0.000000 
0.543202 -1.108852 0.833013 0.045300 1.267400 -91.521500 0.095300 0.476800 0.863800 0.046100 -0.651200 0.034300 1.098700 1.125200 0.291100 0.103400 0.053800 -0.350200 2.654500 1.036600 -2.271200 -0.454000 -0.172200 -4.071700 1.226700 20.207800 -2.357100 3.693700 -13.792200 6.292300 0.000000 0.000000 -1.252700 2.612600 12.396100 -7.460800 0.000000 0.000000 0.000000 0.000000 0.000000 0.000000 -2.197400 -16.849200 0.967000 -3.269900 15.184900 8.781900 0.000000 0.000000 -11.160800 2.283000 -5.587400 4.487100 0.000000 0.000000 0.000000 0.000000 0.000000 0.000000 4.881300 0.574100 -16.505800 -0.299000 0.000000 0.000000 -5.772200 -1.852800 -11.429000 -1.746400 0.000000 0.000000 1.400900 -2.976800 18.307000 4.919400 0.000000 0.000000 -3.375000 2.198000 2.759600 -4.401500 0.000000 0.000000 
